# xmcd
#
# Track frame offsets:
#	150
#	3434
#	10821
#	20180
#
# Disc length: 308 seconds
#
# Revision: 0
# Processed by: cddbd v1.5.1PL0 Copyright (c) Steve Scherf et al.
# Submitted via: audiograbber 1.83.01
#
DISCID=25013204
DTITLE=Nies, Volker - trio für blockflöten
DYEAR=1900
DGENRE=
TTITLE0=I langsam
TTITLE1=II schnell
TTITLE2=III gehend
TTITLE3=IV schnell
EXTD=
EXTT0=
EXTT1=
EXTT2=
EXTT3=
PLAYORDER=
